# xmcd
#
# Track frame offsets: 
#        150
#        8467
#        23039
#        36022
#        42035
#        53732
#        65308
#        71914
#        87104
#        99717
#        104792
#        118778
#        126983
#        135457
#        147169
#        161203
#        168385
#        183444
#        193202
#        201600
#        210896
#        227997
#        235328
#        248486
#        263295
#        267893
#        275650
#        288348
#        300768
#        312411
#        324840
#        336581
#
# Disc length: 4616 seconds
#
# Revision: 2
# Processed by: cddbd v1.5.2PL0 Copyright (c) Steve Scherf et al.
# Submitted via: ExactAudioCopy v0.95b4
#
DISCID=cf120620
DTITLE=Sons Of The Pioneers - Songs Of The Prairie, The Standard Trans
DTITLE=criptions Disc 5
DYEAR=1900
DGENRE=
TTITLE0=Prairie Reverie 1935
TTITLE1=Bring Back My Bonnie 1935
TTITLE2=That Silver Haired Daddy Of Mine 1935
TTITLE3=Prairie Whing Ding 1935
TTITLE4=Waters Of The Blue Juanita (Juniata) 1935
TTITLE5=Bonnie Eloise 1935
TTITLE6=Buffalo Gal 1935
TTITLE7=Gentle Annie 1935
TTITLE8=When You And I Were Young Maggie 1935
TTITLE9=Desert Hokum 1935
TTITLE10=Dear Old Western Skies 1935
TTITLE11=Pass Around The Bottle 1935
TTITLE12=Roving Gambler 1935
TTITLE13=Just Before The Battle Mother 1935
TTITLE14=Long Long Ago 1935
TTITLE15=Shamus O'Brien 1935
TTITLE16=Strawberry Roan 1935
TTITLE17=Blue Bonnets 1935
TTITLE18=Dem Golden Slippers 1935
TTITLE19=While I Rock Our Babies To Sleep 1935
TTITLE20=Mexicali Rose 1935
TTITLE21='A ' Rag 1935
TTITLE22=Mellow Alabama Moon 1935
TTITLE23=Royal Telephone 1935
TTITLE24=Hey There (Whing Ding) 1935
TTITLE25=The Day I Played Baseball 1935
TTITLE26=Stars Of The West 1935
TTITLE27=When It's Autumn In The Hills Of California 1935
TTITLE28=Tumbling Tumbleweeds (Theme) 1935
TTITLE29=Echoes From The Hills 1935
TTITLE30=The Glendy Burke 1935
TTITLE31=louisiana belle 1935
EXTD=
EXTT0=
EXTT1=
EXTT2=
EXTT3=
EXTT4=
EXTT5=
EXTT6=
EXTT7=
EXTT8=
EXTT9=
EXTT10=
EXTT11=
EXTT12=
EXTT13=
EXTT14=
EXTT15=
EXTT16=
EXTT17=
EXTT18=
EXTT19=
EXTT20=
EXTT21=
EXTT22=
EXTT23=
EXTT24=
EXTT25=
EXTT26=
EXTT27=
EXTT28=
EXTT29=
EXTT30=
EXTT31=
PLAYORDER=
